<?xml version="1.0" encoding="UTF-8"?>
<svg width="177px" height="43px" viewBox="0 0 177 43" version="1.1" xmlns="http://www.w3.org/2000/svg" xmlns:xlink="http://www.w3.org/1999/xlink">
    <!-- Generator: Sketch 55 (78076) - https://sketchapp.com -->
    <title>Kooba_Logo</title>
    <desc>Created with Sketch.</desc>
    <g id="Challenge" stroke="none" stroke-width="1" fill="none" fill-rule="evenodd">
        <g id="Kooba-Technical-Challege" transform="translate(-250.000000, -100.000000)" fill="#FFFFFF">
            <g id="Banner">
                <g id="Kooba_Logo" transform="translate(250.000000, 100.000000)">
                    <path d="M14.6849341,12.3010101 C17.5128204,12.3010101 17.947425,9.68826473 23.3858571,9.68826473 C26.9752039,9.68826473 29.4770025,11.1037837 29.4770025,13.6077671 C29.4770025,15.7845426 28.4981246,16.981769 26.5404457,19.5940533 C25.1269633,21.445081 24.4733285,22.207183 24.4733285,23.7315407 C24.4733285,25.9083161 25.1269633,26.3445167 28.0635201,31.3512539 C29.6943431,34.0726843 31,36.4682902 31,38.210018 C31,41.0399029 29.2596618,43 25.6711598,43 C22.2983857,43 20.6674091,42.4554218 18.6002918,40.4960934 C17.1868094,39.0805744 15.8803078,37.0124841 14.6849341,37.0124841 C13.5966179,37.0124841 13.5966179,37.6654398 12.2918058,39.9518995 C11.638939,41.0399029 9.89867757,43 6.63610982,43 C1.1977545,43 0,39.0805744 0,34.3998155 L0,7.40226622 C0,3.26570117 1.84977654,0 6.74478016,0 C10.5514676,0 13.1620133,2.83026922 13.1620133,6.42264042 C13.1620133,8.16436821 13.4880243,12.3010101 14.6849341,12.3010101" id="Fill-1"></path>
                    <path d="M47.5548082,31.8469682 C49.968847,31.8469682 52.0531847,29.2481797 52.0531847,25.9996942 C52.0531847,22.9673411 50.5169288,20.2616714 47.4452693,20.2616714 C45.031153,20.2616714 42.9468928,22.4268188 42.9468928,26.1081809 C42.9468928,29.3568194 44.9216141,31.8469682 47.5548082,31.8469682 Z M48.1037421,43 C36.2546397,43 30,35.7450744 30,25.9996942 C30,15.8217432 37.351578,9 47.4452693,9 C57.210034,9 65,15.7136388 65,25.8918191 C65,35.2034053 58.6358214,43 48.1037421,43 L48.1037421,43 Z" id="Fill-2" fill-rule="nonzero"></path>
                    <path d="M83.5553908,31.8469682 C85.9685695,31.8469682 88.0540517,29.2481797 88.0540517,25.9996942 C88.0540517,22.9673411 86.5178291,20.2616714 83.4446092,20.2616714 C81.0314305,20.2616714 78.946723,22.4268188 78.946723,26.1081809 C78.946723,29.3568194 80.9214237,31.8469682 83.5553908,31.8469682 Z M84.1046504,43 C72.254045,43 66,35.7450744 66,25.9996942 C66,15.8217432 73.3510149,9 83.4446092,9 C93.2112043,9 101,15.7136388 101,25.8918191 C101,35.2034053 94.6366453,43 84.1046504,43 L84.1046504,43 Z" id="Fill-3" fill-rule="nonzero"></path>
                    <path d="M117.944863,32.7720251 C120.347736,32.7720251 122.095139,30.1609068 122.095139,26.4615344 C122.095139,23.4148071 120.784972,20.2586014 118.053594,20.2586014 C115.979227,20.2586014 114.013591,22.2181502 114.013591,26.1349429 C114.013591,30.5961316 116.19746,32.7720251 117.944863,32.7720251 Z M114.886522,9.16094519 C115.760995,10.0313948 116.415693,10.0313948 119.911271,10.0313948 C123.842543,10.0313948 125.698677,11.1193416 127.119117,11.881081 C127.883317,12.4250928 128.75779,13.0777379 129.631491,13.8394774 C132.57956,16.5596132 134,20.5863453 134,25.9175994 C134,36.1455743 128.211051,43 119.911271,43 C117.508398,43 114.231824,42.1298577 112.920886,42.1298577 C112.374919,42.1298577 111.501988,42.2381837 108.771381,42.2381837 C102.872931,42.2381837 102,39.1923016 102,33.2080182 L102,8.39912893 C102,3.06795163 104.511603,1 107.788949,1 C111.609948,1 112.484421,2.63226587 113.795359,6.6581529 C114.013591,7.41989233 114.340555,8.6169334 114.886522,9.16094519 L114.886522,9.16094519 Z" id="Fill-4" fill-rule="nonzero"></path>
                    <path d="M148.123741,34.9616687 C149.875486,34.9616687 151.299456,33.4406566 151.299456,31.8114994 C151.299456,31.1603274 150.970907,29.7474605 149.109387,29.7474605 C146.592316,29.7474605 145.605896,31.7025872 145.605896,32.3549864 C145.605896,34.4181817 147.029866,34.9616687 148.123741,34.9616687 Z M164,35.8310485 C164,40.0672715 161.918932,42.2399158 157.649342,42.2399158 L153.378978,41.9134861 C150.970907,41.9134861 147.795965,43 145.27812,43 C138.927462,43 134,38.546643 134,33.1154541 C134,30.8338977 134.438323,28.7699355 134.985647,27.7923337 L137.175716,24.6425479 C137.832814,23.7727846 138.051589,23.0122402 138.051589,22.5781255 C137.941815,21.1664858 136.190842,19.8625311 136.190842,17.14686 C136.190842,12.0416406 142.540727,9 148.889839,9 C160.058185,9 164,12.6931961 164,23.7727846 L164,35.8310485 L164,35.8310485 Z" id="Fill-5" fill-rule="nonzero"></path>
                    <path d="M172.322192,12.3357338 C171.725223,12.809119 171.01166,13.0458117 170.180723,13.0458117 C169.133696,13.0458117 168.239798,12.67099 167.497474,11.9211136 C166.75515,11.1714703 166.384376,10.1737856 166.384376,8.92852582 C166.384376,7.76589472 166.718616,6.79432782 167.387097,6.01250368 C168.057132,5.23122366 168.930043,4.84015613 170.009716,4.84015613 C170.688302,4.84015613 171.300039,4.97696369 171.846483,5.24995697 C172.791683,5.73958813 173.30548,6.55227171 173.387874,7.68971778 L172.235911,7.68971778 C172.176836,7.21306779 171.977847,6.80039088 171.635834,6.45083201 C171.293043,6.10181725 170.796347,5.92699895 170.142635,5.92699895 C169.223863,5.92699895 168.557715,6.33967586 168.144967,7.16580699 C167.879129,7.69337116 167.746211,8.26127802 167.746211,8.87147085 C167.746211,9.74206444 167.959969,10.4740626 168.388263,11.0683982 C168.816557,11.6623452 169.436067,11.9593575 170.247571,11.9593575 C170.767586,11.9593575 171.201321,11.8212285 171.55033,11.5446596 C171.899339,11.2680906 172.142635,10.8667625 172.281772,10.3392761 L173.436067,10.3392761 C173.289934,11.1967331 172.918383,11.8624262 172.322192,12.3357338 Z M165.762534,4.72612392 C164.602021,5.9012698 164.019821,7.3214256 164.019821,8.98596945 C164.019821,10.6631058 164.597357,12.0925117 165.753206,13.2742647 C166.92227,14.4564842 168.336183,15.0471664 170.000389,15.0471664 C171.663817,15.0471664 173.079285,14.4564842 174.247571,13.2742647 C175.402643,12.0925117 175.980179,10.6631058 175.980179,8.98596945 C175.980179,7.3214256 175.399534,5.9012698 174.238243,4.72612392 C173.075398,3.54421538 171.663817,2.95322225 170.000389,2.95322225 C168.343179,2.95322225 166.93082,3.54421538 165.762534,4.72612392 Z M174.952585,13.9415903 C173.587641,15.3140966 171.935873,16 170.000389,16 C168.06335,16 166.413136,15.3140966 165.048193,13.9415903 C163.682472,12.5691617 163,10.9140233 163,8.97656393 C163,7.04516759 163.682472,5.39990117 165.048193,4.03967641 C166.413136,2.68022897 168.06335,2 170.000389,2 C171.935873,2 173.587641,2.68022897 174.952585,4.03967641 C176.316751,5.39990117 177,7.04516759 177,8.97656393 C177,10.9140233 176.316751,12.5691617 174.952585,13.9415903 L174.952585,13.9415903 Z" id="Fill-6" fill-rule="nonzero"></path>
                </g>
            </g>
        </g>
    </g>
</svg>